<svg xmlns="http://www.w3.org/2000/svg" viewBox="0 0 532.67 338.79"><defs><style>.cls-1,.cls-4{fill:none;}.cls-2{fill:#58595b;}.cls-3{fill:#1b75bc;}.cls-4{stroke:#1b75bc;stroke-linecap:round;stroke-miterlimit:10;stroke-width:4px;}</style></defs><title>Asset 2</title><g id="Layer_2" data-name="Layer 2"><g id="Layer_1-2" data-name="Layer 1"><rect class="cls-1" width="532.67" height="338.79"/><path class="cls-2" d="M134.58,237.45h-15V191.22h14.26a12.78,12.78,0,0,1,8.68,2.84q3.27,2.83,3.27,8.72c0,3.92-1.45,6.86-4.36,8.85a.18.18,0,0,0-.06.13v.06a11.61,11.61,0,0,1,4.85,4.26,13.58,13.58,0,0,1,2,7.63,15.85,15.85,0,0,1-1.78,7.53Q143.22,237.45,134.58,237.45Zm-10.24-27.28h8.52q7.72,0,7.73-7.26,0-7.07-7.86-7.07h-8.39Zm0,22.85h9.18a10.55,10.55,0,0,0,6.9-2q2.47-2.05,2.48-6.94T140.42,217a8.7,8.7,0,0,0-6-2.18h-10.1Z"/><path class="cls-2" d="M184.37,237.45h-4.89l-5.22-15.32c-.79.08-1.49.13-2.11.13H160.39v15.19h-4.75V191.22h16.05q6.33,0,9.47,4c2.09,2.68,3.14,6.21,3.14,10.56q0,8.13-2.51,11.83a10.24,10.24,0,0,1-3.1,3Zm-24-19.81h11.17q3.88,0,5.61-2.25a16.46,16.46,0,0,0,1.29-2.11,8.12,8.12,0,0,0,.69-2.64,39.66,39.66,0,0,0,.26-4.83q0-10-8.45-10H160.39Z"/><path class="cls-3" d="M197.9,223.64h-4.75V190.56h4.75Z"/><path class="cls-2" d="M241.23,237.45H236.4l-22.91-37v37h-4.76V191.22h4.76l22.91,36.92V191.22h4.83Z"/><path class="cls-2" d="M271.73,238.17l-1.32-3.36a6,6,0,0,0,3.11-2.22c.79-1.08,1.19-2.89,1.19-5.45v-7.66q-3.24,2.78-9.78,2.78a15.5,15.5,0,0,1-10.63-3.6q-4.1-3.6-4.09-10.34v-17.1H255v17.37q0,4.42,2.77,6.7a10.61,10.61,0,0,0,7,2.28,13.73,13.73,0,0,0,6.73-1.42,6.26,6.26,0,0,0,3.21-4V191.22h4.82v35.92Q279.53,237.19,271.73,238.17Z"/><path class="cls-2" d="M283.16,225.69l4.95-.33a8.55,8.55,0,0,0,3.2,5.75,11.14,11.14,0,0,0,7.47,2.44,12.66,12.66,0,0,0,7.59-2.15,7.2,7.2,0,0,0,3-6.24,7.68,7.68,0,0,0-1.85-5.18,12,12,0,0,0-4.63-3.27l-6-2.44q-3.27-1.32-6-2.58a11.54,11.54,0,0,1-4.62-3.76,9.81,9.81,0,0,1-1.85-6,10.29,10.29,0,0,1,3.83-8q3.82-3.37,11-3.37a22.22,22.22,0,0,1,9.64,2c0,.09-.49,1.59-1.46,4.49a20.83,20.83,0,0,0-8.41-1.78,11.93,11.93,0,0,0-7,1.85,5.81,5.81,0,0,0-2.64,5c0,2.55,1.69,4.58,5.08,6.07q2.25,1,4.92,1.95c1.78.64,3.56,1.35,5.32,2.15a31.32,31.32,0,0,1,4.85,2.7,11.68,11.68,0,0,1,3.6,4,11.52,11.52,0,0,1,1.39,5.71,12.92,12.92,0,0,1-3.87,9.78q-3.86,3.69-11.49,3.69t-11.75-3.79A12,12,0,0,1,283.16,225.69Z"/><path class="cls-2" d="M366.92,237.45h-4.75V191.22h22.05v4.62h-17.3v14.33h10.7l-1.78,4.63h-8.92Z"/><path class="cls-2" d="M402,237.45h-4.76V195.71h-10.7v-4.49h26.55v4.49H402Z"/><path class="cls-3" d="M351.66,204v21.2q0,6.68-4.06,9.81a15.48,15.48,0,0,1-9.74,3.13,15.74,15.74,0,0,1-9.81-3.13q-4.12-3.14-4.13-9.81V204q0-6.81,3.73-10.31t10.27-3.5q6.54,0,10.14,3.7T351.66,204ZM346.9,224.7V204.3q0-4.56-2.34-6.94c-1.56-1.58-3.82-2.38-6.77-2.38q-9.1,0-9.11,9.32v20.53c0,2.82.83,5,2.51,6.44a11,11,0,0,0,13.2,0C346.07,229.8,346.9,227.61,346.9,224.7Z"/><rect class="cls-3" x="335.38" y="185.69" width="4.82" height="4.82"/><rect class="cls-3" x="335.38" y="237.45" width="4.82" height="4.82"/><rect class="cls-3" x="349.4" y="193.33" width="4.82" height="4.82" transform="translate(345.42 -206.81) rotate(60)"/><rect class="cls-3" x="351.23" y="211.76" width="4.82" height="4.82" transform="translate(567.81 -139.47) rotate(90)"/><rect class="cls-3" x="350.04" y="227.72" width="4.82" height="4.82" transform="translate(718.16 21.72) rotate(117.18)"/><rect class="cls-3" x="320.7" y="227.72" width="4.82" height="4.82" transform="matrix(0.89, -0.46, 0.46, 0.89, -69.44, 173.01)"/><rect class="cls-3" x="321.26" y="193.33" width="4.82" height="4.82" transform="matrix(-0.5, 0.87, -0.87, -0.5, 655.02, 13.3)"/><rect class="cls-3" x="319.53" y="211.76" width="4.82" height="4.82" transform="translate(536.11 -107.77) rotate(90)"/><path class="cls-3" d="M198.3,234.74a2.7,2.7,0,0,0-2.67-2.71,2.64,2.64,0,0,0-1.92.83,2.57,2.57,0,0,0,0,3.76,2.64,2.64,0,0,0,1.92.83,2.71,2.71,0,0,0,2.67-2.71Z"/><polyline class="cls-4" points="84.3 133.92 84.3 268.92 448.37 268.92 448.37 133.92 284.24 133.92"/><path class="cls-3" d="M84.3,129.65c40.91-28.45,59.81-4.62,109,5.9,29.2,5.22,53.81,6.62,75.48-13.61-16.42,26.39-49.85,28-80.28,22.4C139.92,135.26,134.74,111,84.3,129.65Z"/><path class="cls-3" d="M149.14,137.49c44.52,12.12,121.76,35.69,147.6-28.64C292.14,155.43,228.75,185.62,149.14,137.49Z"/><path class="cls-3" d="M179.85,158.35c-39.24-.87-56.1-25.17-95.55-22.64,16-10.06,33.11-6.38,50.46.78C146.17,141.32,174.16,155.15,179.85,158.35Z"/><path class="cls-3" d="M191.7,125.29c23.54,4,47.48-2.14,63.21-12.23,26.94-17.21,12.65-47-10-37.93C267.3,55,298.07,97.53,260,121.29,237.72,135.14,208.86,135.17,191.7,125.29Z"/></g></g></svg>